<svg width="1884" height="579" viewBox="0 0 1884 579" fill="none" xmlns="http://www.w3.org/2000/svg">
<path fill-rule="evenodd" clip-rule="evenodd" d="M0 568.6H99.08L100.98 495.78C128.4 528.21 141.86 551.74 195.34 568.44C447.28 647.1 565.01 256.67 353.45 135.97C272.99 90.06 189.55 112.99 126.1 180.1L118.93 187.08C118.08 187.92 116.48 189.51 115.11 190.54L114.29 3.02L0 0V568.6ZM197.4 217.99C165.26 228.35 144.35 247.1 127.4 271.94C107.93 300.46 112.53 347.97 114.11 384.51C116.98 451.09 189.82 497.62 261.74 473.71C399.09 428.06 355.43 167.04 197.4 217.99Z" fill="#01274E"/>
<path fill-rule="evenodd" clip-rule="evenodd" d="M905.49 566.69L1005.44 566.32L1005.67 499.23C1041.26 529.22 1049.81 552.3 1103.14 568.9C1232.83 609.26 1368.12 506.53 1368.12 347.56C1368.12 246.92 1317.61 164.55 1253 132.66C1159.26 86.38 1079.33 124.62 1020.58 195.12L1019.82 0L905.48 0.400002L905.49 566.69ZM1104.07 216.87C960.53 263.64 999.43 525.59 1164.83 474.38C1313.66 428.3 1253.05 168.33 1104.07 216.87Z" fill="#01274E"/>
<path fill-rule="evenodd" clip-rule="evenodd" d="M459.6 150.94C470.58 175.69 512.12 213.96 530.89 235.54C559.38 208.17 615.87 151.4 687.74 179.39C742.02 200.52 757.45 252.81 662 306.8C542.93 374.16 457.16 395.82 452.74 568.6C517.91 568.6 826.58 577.7 863.6 563.67L863.39 467.96L607.5 465.55C643.82 369.65 921.56 341.9 843.85 163.89C781.96 22.12 553.87 69.06 459.6 150.94Z" fill="#01274E"/>
<path fill-rule="evenodd" clip-rule="evenodd" d="M1643.29 121.95H1571.68V209.6H1640.25C1645.21 286.6 1627.6 452.12 1651.04 515.09C1682.61 599.9 1806.7 576.78 1883.77 546.87L1863.38 458.32C1765.47 473.08 1746.5 522.2 1757.63 231.7L1759.33 209.54L1851.76 209.6L1851.35 121.95H1757.63V0L1643.29 0.400002V121.95Z" fill="#FDCF00"/>
<path fill-rule="evenodd" clip-rule="evenodd" d="M1411.58 566.69L1434.43 568.97L1525.92 568.59V121.95L1411.58 122.35V566.69Z" fill="#FDCF00"/>
</svg>
